<?xml version="1.0" standalone="no"?>
<!DOCTYPE svg PUBLIC "-//W3C//DTD SVG 20010904//EN"
 "http://www.w3.org/TR/2001/REC-SVG-20010904/DTD/svg10.dtd">
<svg version="1.0" xmlns="http://www.w3.org/2000/svg"
 width="460.000000pt" height="460.000000pt" viewBox="0 0 460.000000 460.000000"
 preserveAspectRatio="xMidYMid meet">

<g transform="translate(0.000000,460.000000) scale(0.100000,-0.100000)"
fill="#000000" stroke="none">
<path d="M1900 4440 c-101 -9 -262 -48 -343 -83 -90 -38 -149 -81 -225 -162
-76 -81 -86 -107 -81 -205 3 -62 2 -147 -3 -218 -2 -37 -11 -58 -37 -91 -62
-78 -79 -105 -129 -206 -101 -201 -167 -522 -111 -533 13 -2 17 9 22 54 13
123 71 338 119 438 39 83 62 119 131 206 67 85 71 87 257 122 138 26 347 27
565 4 132 -14 317 -51 381 -77 16 -6 52 -17 79 -24 104 -28 222 -74 365 -143
85 -41 144 -77 275 -166 107 -73 266 -197 323 -253 34 -35 66 -63 70 -63 5 0
15 -44 24 -97 41 -243 51 -294 69 -378 20 -88 57 -215 85 -285 26 -66 56 -215
56 -275 0 -148 -95 -260 -272 -320 -91 -31 -116 -47 -106 -64 11 -18 42 -13
129 21 102 40 149 70 208 131 56 59 89 145 89 232 0 67 -35 223 -74 332 -38
105 -83 286 -101 400 -8 55 -17 107 -20 114 -2 8 -11 58 -19 112 -13 89 -13
102 2 143 14 37 22 46 52 54 58 16 84 66 89 167 4 101 -11 212 -42 308 -23 71
-93 208 -131 257 -12 14 -32 41 -46 60 -35 48 -152 167 -170 173 -8 3 -32 21
-53 40 -21 19 -50 42 -65 50 -15 8 -34 19 -42 24 -144 88 -260 133 -395 155
-49 8 -121 22 -160 31 -55 13 -137 18 -375 20 -168 2 -343 0 -390 -5z m815
-74 c66 -14 129 -26 141 -26 23 0 153 -39 169 -50 6 -4 44 -24 85 -46 41 -21
95 -51 120 -67 53 -35 193 -148 199 -160 1 -4 13 -18 25 -30 34 -34 101 -118
122 -154 70 -118 85 -149 108 -224 31 -102 48 -256 36 -319 -5 -25 -9 -49 -10
-53 0 -7 -61 -37 -75 -37 -3 0 -5 5 -5 12 0 13 -38 72 -80 125 -14 18 -34 44
-45 59 -11 15 -60 69 -110 120 -93 96 -176 158 -287 217 -35 19 -76 41 -89 50
-13 8 -53 27 -89 42 -36 14 -83 35 -105 45 -57 27 -237 85 -320 103 -214 48
-333 60 -529 54 -174 -4 -238 -12 -401 -47 -66 -14 -211 -57 -234 -69 -31 -17
-38 -8 -46 63 -8 82 11 130 83 203 95 95 192 147 347 184 138 32 224 38 560
34 287 -3 319 -5 430 -29z"/>
<path d="M1527 3548 c-39 -52 -76 -132 -109 -237 -25 -80 -30 -114 -32 -206
-1 -125 6 -165 32 -165 16 0 18 13 17 138 0 128 2 143 32 227 44 126 61 165
90 203 25 33 28 62 6 69 -6 2 -22 -11 -36 -29z"/>
<path d="M1631 3421 c-25 -46 -54 -235 -48 -311 10 -122 47 -210 89 -210 23 0
23 7 -2 57 -45 94 -52 212 -19 356 12 50 22 99 23 107 2 22 -31 24 -43 1z"/>
<path d="M2425 3391 c-6 -29 -3 -96 11 -236 6 -56 46 -186 66 -211 4 -6 19
-31 31 -55 24 -45 53 -62 63 -36 3 8 -9 39 -27 68 -68 115 -94 224 -102 429
-1 51 -5 65 -19 68 -11 2 -18 -6 -23 -27z"/>
<path d="M1876 3388 c-3 -7 -9 -28 -15 -47 -6 -19 -11 -95 -11 -169 0 -127 2
-138 28 -189 29 -58 57 -82 74 -65 7 7 0 29 -22 66 -25 45 -33 71 -37 129 -4
65 5 166 23 255 5 28 4 32 -15 32 -12 0 -23 -6 -25 -12z"/>
<path d="M2094 3107 c-10 -27 17 -141 42 -180 21 -32 27 -36 44 -27 18 10 18
11 -5 58 -14 26 -28 72 -33 102 -5 40 -12 56 -25 58 -9 2 -20 -3 -23 -11z"/>
<path d="M2257 3103 c-14 -14 -6 -50 29 -124 37 -80 51 -93 74 -79 11 7 8 21
-17 72 -17 35 -37 80 -44 101 -12 35 -27 46 -42 30z"/>
<path d="M1425 2800 c-47 -12 -157 -66 -189 -93 -17 -14 -26 -29 -22 -35 9
-15 43 -16 51 -2 4 6 38 26 76 45 88 45 194 61 286 45 35 -6 68 -8 73 -5 16
10 -1 33 -32 44 -35 12 -197 13 -243 1z"/>
<path d="M2242 2801 c-39 -7 -61 -22 -62 -43 0 -8 16 -12 33 -9 4 1 51 6 104
11 141 15 235 1 331 -50 64 -33 79 -38 90 -26 11 11 7 17 -21 38 -18 15 -62
39 -98 54 -58 25 -77 28 -199 30 -74 1 -155 -1 -178 -5z"/>
<path d="M2374 2741 c-40 -18 -81 -69 -88 -111 -17 -104 40 -170 147 -170 100
0 137 36 137 132 0 56 -24 105 -65 132 -30 20 -102 29 -131 17z m118 -70 c28
-25 32 -34 32 -81 0 -43 -4 -55 -25 -71 -49 -38 -142 -16 -160 39 -36 108 71
187 153 113z"/>
<path d="M1505 2709 c-36 -18 -65 -71 -65 -120 0 -38 5 -50 33 -76 17 -17 47
-35 66 -42 78 -26 161 38 161 123 0 46 -33 104 -67 117 -31 12 -102 11 -128
-2z m119 -51 c68 -60 15 -163 -72 -143 -78 17 -92 117 -22 152 37 19 66 16 94
-9z"/>
<path d="M3055 2633 c-101 -22 -150 -58 -124 -89 10 -13 15 -12 34 6 32 30
123 45 181 31 133 -34 214 -153 214 -317 0 -76 -21 -149 -60 -202 -58 -80
-175 -149 -282 -167 -29 -4 -38 -11 -38 -25 0 -19 15 -25 48 -21 9 2 11 -6 6
-26 -13 -53 -36 -87 -89 -131 -9 -8 -14 -19 -12 -25 17 -53 116 39 144 135 18
60 20 63 70 83 98 39 219 160 243 243 32 105 19 262 -25 333 -14 21 -25 40
-25 43 0 10 -59 64 -93 85 -37 23 -128 52 -157 50 -8 -1 -24 -3 -35 -6z"/>
<path d="M957 2604 c-4 -4 -7 -26 -7 -48 0 -23 -4 -58 -9 -78 -8 -34 -87 -165
-151 -248 -71 -93 -120 -215 -120 -301 0 -65 29 -136 72 -176 32 -30 114 -73
139 -73 35 0 17 33 -32 60 -60 33 -77 47 -105 92 -39 61 -41 107 -9 196 15 42
34 84 41 93 8 8 14 20 14 25 0 5 13 25 28 44 25 31 93 128 130 185 28 45 35
74 36 149 1 73 -8 99 -27 80z"/>
<path d="M1478 2418 c-7 -19 2 -38 17 -38 18 0 26 15 19 34 -7 19 -30 21 -36
4z"/>
<path d="M1633 2414 c-8 -21 13 -42 28 -27 13 13 5 43 -11 43 -6 0 -13 -7 -17
-16z"/>
<path d="M2507 2416 c-8 -19 16 -38 37 -30 19 7 20 16 4 32 -16 16 -35 15 -41
-2z"/>
<path d="M1552 2398 c2 -12 10 -23 18 -23 22 0 19 39 -3 43 -15 3 -18 -1 -15
-20z"/>
<path d="M2430 2400 c0 -23 26 -38 41 -23 14 14 0 43 -22 43 -12 0 -19 -7 -19
-20z"/>
<path d="M2340 2391 c0 -26 17 -36 36 -21 11 10 12 16 3 26 -17 20 -39 17 -39
-5z"/>
<path d="M1240 2130 c-13 -8 -11 -16 10 -55 42 -77 115 -144 258 -237 59 -38
251 -127 317 -146 82 -24 263 -52 338 -52 29 0 59 -4 67 -10 11 -7 54 -112 47
-116 -16 -8 -185 -141 -194 -151 -11 -14 -14 -14 -28 1 -23 23 -58 20 -116 -9
-61 -32 -85 -69 -94 -149 -10 -85 -27 -136 -65 -195 -19 -28 -35 -51 -36 -51
-2 0 -21 6 -41 14 -37 14 -144 38 -228 51 -48 7 -192 46 -397 107 -48 14 -69
-3 -98 -79 -24 -65 -24 -98 -1 -183 10 -36 26 -94 35 -130 17 -66 54 -197 86
-305 10 -33 30 -100 45 -150 48 -164 68 -220 81 -234 21 -23 213 -42 472 -48
l243 -5 25 27 c33 35 31 78 -7 206 -17 57 -39 131 -49 164 -10 33 -16 62 -14
64 2 2 48 -1 101 -7 261 -30 884 -42 1058 -21 130 16 158 27 170 67 5 18 16
32 25 32 19 0 123 36 161 55 48 25 89 66 89 88 -1 12 -9 36 -18 53 -17 31 -92
145 -102 154 -3 3 -39 49 -79 103 -41 54 -84 108 -97 120 -17 17 -25 43 -34
107 -7 47 -17 91 -23 98 -5 7 -47 37 -92 67 -83 56 -130 69 -142 40 -5 -14 -7
-14 -22 0 -32 30 -77 61 -134 90 -31 17 -69 40 -84 53 -17 14 -39 22 -63 22
-33 0 -38 4 -58 45 -31 64 -29 72 21 79 23 4 56 15 73 25 17 10 45 22 62 26
39 8 112 43 112 53 0 35 -56 24 -210 -41 -19 -8 -56 -18 -82 -22 -26 -4 -49
-13 -52 -20 -6 -15 14 -81 44 -148 24 -54 25 -53 -57 -143 -16 -16 -41 -46
-56 -65 -22 -28 -29 -31 -37 -19 -15 23 -30 81 -30 120 0 29 -31 123 -59 179
-12 24 -31 29 -192 45 -109 11 -185 25 -253 46 -220 67 -460 223 -542 352 -28
44 -36 49 -54 38z m1411 -619 c13 -10 39 -26 58 -35 33 -17 33 -19 27 -64 -13
-99 -58 -206 -105 -253 -44 -43 -57 -43 -104 4 -81 81 -113 129 -100 150 22
36 179 217 189 217 6 0 22 -8 35 -19z m-351 -103 c7 -29 19 -62 26 -73 21 -29
17 -55 -16 -110 -36 -61 -64 -95 -80 -95 -16 0 -48 78 -51 125 -5 103 -2 116
47 162 26 24 50 43 54 43 5 0 14 -24 20 -52z m562 -31 l57 -52 -18 -85 c-40
-178 -123 -336 -227 -428 -59 -53 -161 -94 -175 -71 -4 6 -10 48 -13 93 -4 44
-11 107 -17 138 -9 51 -8 59 9 76 11 11 24 27 29 36 7 13 14 14 39 4 39 -14
72 -6 111 29 56 51 92 131 127 286 4 15 10 27 14 27 4 0 33 -24 64 -53z m237
-87 c6 0 11 -6 11 -12 0 -7 9 -74 20 -148 18 -123 26 -214 46 -521 l7 -107
-49 -12 c-162 -40 -1210 -11 -1252 35 -6 6 -17 42 -26 80 -9 39 -24 96 -33
128 -17 61 -13 90 44 327 8 36 21 99 27 140 12 75 12 75 61 108 27 17 53 32
58 32 4 0 5 -28 1 -62 -9 -89 11 -237 41 -303 14 -29 25 -56 25 -60 0 -22 133
-165 153 -165 5 0 21 -9 36 -19 34 -25 192 -55 240 -46 113 19 141 34 220 113
125 127 223 348 233 530 l3 49 62 -44 c34 -24 67 -43 72 -43z m-944 -135 c24
-57 43 -75 80 -75 58 0 67 -33 40 -145 -8 -33 -15 -77 -15 -97 0 -21 -4 -38
-9 -38 -13 0 -70 57 -102 100 -37 50 -67 134 -80 219 -15 103 -8 155 27 192
l29 30 7 -73 c3 -40 14 -91 23 -113z m-1069 -74 c161 -50 337 -98 389 -106 55
-8 131 -24 183 -37 49 -12 55 -33 19 -66 -20 -19 -28 -20 -58 -12 -18 6 -74
17 -124 26 -88 15 -255 55 -305 73 -14 5 -58 19 -97 31 -40 13 -73 24 -73 27
0 8 29 73 33 73 2 0 17 -4 33 -9z m2169 -115 c28 -35 57 -74 65 -86 8 -13 34
-49 57 -80 23 -32 49 -73 59 -91 l17 -33 -31 -26 c-31 -26 -181 -85 -191 -75
-3 3 -9 76 -13 163 -4 86 -12 187 -16 225 -5 37 -6 67 -3 67 3 -1 29 -29 56
-64z m-2105 -45 c150 -46 231 -66 325 -81 39 -6 95 -18 126 -26 53 -15 57 -18
67 -57 6 -23 20 -73 31 -112 10 -38 33 -122 51 -185 17 -63 40 -146 51 -185
11 -38 28 -102 38 -141 11 -40 22 -82 26 -94 l7 -23 -128 7 c-71 4 -149 12
-174 17 -35 8 -271 38 -301 39 -10 0 -44 98 -88 250 -22 74 -53 180 -69 235
-16 55 -37 129 -46 165 -9 36 -25 99 -36 140 -22 85 -23 90 -12 90 4 0 63 -17
132 -39z m608 -113 c24 -130 59 -266 136 -526 42 -140 51 -200 36 -222 -9 -13
-11 -13 -20 0 -5 8 -10 24 -10 36 0 19 -40 164 -75 274 -8 25 -30 106 -49 180
-19 74 -43 163 -55 197 -12 34 -21 66 -21 71 0 10 33 52 41 52 3 0 11 -28 17
-62z"/>
<path d="M1273 808 c-59 -28 -27 -118 42 -118 41 0 59 66 29 108 -16 24 -36
27 -71 10z"/>
<path d="M1388 748 c-9 -23 3 -38 29 -38 20 0 24 4 21 23 -3 25 -42 37 -50 15z"/>
<path d="M3395 2110 c-3 -5 -1 -37 6 -70 17 -85 0 -211 -31 -240 -3 -3 -14
-18 -23 -33 -10 -16 -50 -61 -88 -101 -73 -77 -82 -96 -48 -96 25 0 137 113
185 186 18 29 41 82 50 120 15 59 16 77 5 142 -7 41 -15 81 -18 89 -6 15 -29
17 -38 3z"/>
<path d="M970 1806 c0 -40 41 -96 71 -96 23 0 26 38 4 46 -8 3 -20 24 -25 45
-8 29 -16 39 -30 39 -16 0 -20 -7 -20 -34z"/>
<path d="M1091 1806 c-23 -27 52 -152 84 -140 21 9 19 15 -21 83 -42 71 -48
76 -63 57z"/>
<path d="M3113 1703 c-10 -15 -26 -37 -35 -47 -29 -32 -19 -63 15 -50 23 8 69
80 65 100 -5 28 -26 27 -45 -3z"/>
</g>
</svg>
